<?xml version="1.0" encoding="UTF-8" standalone="no"?>
<!-- Created with Inkscape (http://www.inkscape.org/) -->

<svg
   xmlns:dc="http://purl.org/dc/elements/1.1/"
   xmlns:cc="http://creativecommons.org/ns#"
   xmlns:rdf="http://www.w3.org/1999/02/22-rdf-syntax-ns#"
   xmlns:svg="http://www.w3.org/2000/svg"
   xmlns="http://www.w3.org/2000/svg"
   xmlns:sodipodi="http://sodipodi.sourceforge.net/DTD/sodipodi-0.dtd"
   xmlns:inkscape="http://www.inkscape.org/namespaces/inkscape"
   width="16"
   height="16"
   viewBox="0 0 16 16"
   id="svg2"
   version="1.1"
   inkscape:version="0.91 r13725"
   sodipodi:docname="tabu.svg">
  <defs
     id="defs4" />
  <sodipodi:namedview
     id="base"
     pagecolor="#ffffff"
     bordercolor="#666666"
     borderopacity="1.0"
     inkscape:pageopacity="0.0"
     inkscape:pageshadow="2"
     inkscape:zoom="10.24"
     inkscape:cx="21.058734"
     inkscape:cy="-1.6842113"
     inkscape:document-units="px"
     inkscape:current-layer="layer1"
     showgrid="true"
     units="px"
     showborder="true"
     fit-margin-top="0"
     fit-margin-left="0"
     fit-margin-right="0"
     fit-margin-bottom="0"
     inkscape:window-width="1280"
     inkscape:window-height="666"
     inkscape:window-x="-8"
     inkscape:window-y="-8"
     inkscape:window-maximized="1">
    <inkscape:grid
       type="xygrid"
       id="grid3349"
       originx="-4.4882081"
       originy="-1033.7502" />
  </sodipodi:namedview>
  <metadata
     id="metadata7">
    <rdf:RDF>
      <cc:Work
         rdf:about="">
        <dc:format>image/svg+xml</dc:format>
        <dc:type
           rdf:resource="http://purl.org/dc/dcmitype/StillImage" />
        <dc:title></dc:title>
      </cc:Work>
    </rdf:RDF>
  </metadata>
  <g
     inkscape:label="Calque 1"
     inkscape:groupmode="layer"
     id="layer1"
     transform="translate(-4.4882081,-2.6120288)">
    <path
       style="fill:#000000"
       d="m 9.0475044,13.026645 c -0.04848,-0.05048 -0.019093,-0.101219 0.058718,-0.101375 0.1382072,-2.93e-4 0.2988112,-0.05848 0.3318817,-0.120275 0.044394,-0.08296 0.011686,-0.202785 -0.143396,-0.525429 -0.1173165,-0.244068 -0.1339772,-0.302729 -0.1334135,-0.469723 2.922e-4,-0.104951 0.023907,-0.270086 0.052291,-0.366964 0.047283,-0.161267 0.2138452,-0.525025 0.3114807,-0.680251 0.037074,-0.05898 0.027651,-0.07791 -0.1262909,-0.253253 -0.2845164,-0.324068 -0.3732846,-0.48033 -0.3732846,-0.6570931 0,-0.084378 0.015019,-0.1863378 0.03333,-0.2265763 0.038021,-0.083448 0.1101692,-0.1224065 0.1269657,-0.068556 0.084254,0.2701847 0.1208799,0.3502871 0.2144047,0.4688914 0.1213284,0.153872 1.4279353,1.660137 1.4355813,1.654952 0.01407,-0.0096 0.186025,-1.121059 0.186025,-1.202482 0,-0.06933 -0.02535,-0.120284 -0.09069,-0.182425 -0.04988,-0.04742 -0.124127,-0.142939 -0.164995,-0.212257 -0.06211,-0.1053547 -0.0721,-0.1526089 -0.06088,-0.287981 0.0091,-0.1095849 0.03242,-0.1809557 0.07222,-0.2207415 l 0.0588,-0.058792 0.155823,0.2699954 c 0.0857,0.1484983 0.233308,0.3507811 0.328018,0.4495231 0.109831,0.114514 0.183416,0.220598 0.203187,0.292927 0.0344,0.125859 0.0135,0.308658 -0.04432,0.387744 -0.04848,0.06631 -0.134228,0.03531 -0.134228,-0.04852 0,-0.06308 -0.113601,-0.291289 -0.144857,-0.291001 -0.0091,9.4e-5 -0.05322,0.227975 -0.09797,0.506418 -0.136886,0.851863 -0.150243,0.727205 0.112453,1.04938 0.277131,0.339869 0.348835,0.486441 0.322825,0.659888 -0.01029,0.06866 -0.03609,0.148584 -0.05731,0.177606 -0.04631,0.06334 -0.134981,0.03942 -0.135529,-0.03658 -8.17e-4,-0.142723 -0.183677,-0.390223 -0.893909,-1.211302 -0.5682516,-0.656937 -0.7683204,-0.870177 -0.7862979,-0.838057 -0.047229,0.08439 -0.1374172,0.488362 -0.1568101,0.702376 -0.028269,0.312028 -0.00416,0.39318 0.1923042,0.647424 0.2206305,0.285504 0.2843275,0.441915 0.2376165,0.583455 -0.049526,0.150066 -0.178088,0.200303 -0.5571744,0.217717 -0.1708046,0.0079 -0.3204591,0.0041 -0.332573,-0.0087 z M 6.8599473,12.01313 C 6.6321116,11.965826 6.4296146,11.747257 6.3565349,11.469769 6.2529304,11.07638 6.2568753,10.284589 6.3687928,9.008966 6.4007152,8.6451166 6.4021266,8.5297958 6.3750596,8.4971738 6.346178,8.4623628 6.2508652,8.4578365 5.8259418,8.4710449 5.0518405,8.4951164 4.970084,8.5392598 4.7577292,9.0476779 4.686332,9.2186182 4.61862,9.3895873 4.6072579,9.4276079 c -0.017644,0.059043 -0.03384,0.066499 -0.1109744,0.051073 -0.049674,-0.00992 -0.096567,-0.024318 -0.104206,-0.031972 -0.023467,-0.023454 0.2304487,-0.988938 0.301857,-1.1477768 0.075078,-0.1669983 0.1667897,-0.2441998 0.3829749,-0.3223683 0.1322248,-0.04781 0.27931,-0.053805 1.4825545,-0.060438 0.734673,-0.00411 1.4046209,-0.014813 1.4887723,-0.023907 0.084155,-0.00909 0.2590707,-0.05006 0.3887027,-0.091011 0.1860045,-0.058759 0.2484833,-0.06761 0.2963588,-0.041987 l 0.060668,0.032466 -0.061146,0.093488 C 8.6992026,7.9365926 8.6158742,8.0679405 8.5476718,8.1770562 8.4497359,8.333743 8.402062,8.3821245 8.3209144,8.4071835 c -0.056512,0.017447 -0.3537599,0.038679 -0.6605456,0.047143 -0.4211025,0.011645 -0.5693539,0.025594 -0.6049756,0.056866 -0.063471,0.055759 -0.129632,0.8714282 -0.1270644,1.5665295 0.00206,0.56521 0.055615,0.922633 0.1691381,1.12938 0.065713,0.119674 0.250479,0.249059 0.3569324,0.249944 0.032054,2.92e-4 0.1752238,-0.05511 0.318196,-0.123057 l 0.2599554,-0.123538 0.053068,0.07035 c 0.067532,0.08953 0.058459,0.107837 -0.1240027,0.250118 -0.5025052,0.391863 -0.8352469,0.537501 -1.1016625,0.482182 z m 6.0847687,-0.06701 c -0.191901,-0.08976 -0.371762,-0.289154 -0.456091,-0.505625 -0.05159,-0.13243 -0.07057,-0.250573 -0.07981,-0.496695 l -0.01214,-0.322932 0.398779,-1.5922303 c 0.219331,-0.8757281 0.39878,-1.6372422 0.39878,-1.6922569 0,-0.1160409 -0.03288,-0.1354873 -0.229921,-0.1360634 -0.204517,-4.115e-4 -0.269156,-0.025141 -0.269156,-0.1021782 0,-0.036498 0.01708,-0.080535 0.0379,-0.097837 0.02086,-0.017323 0.215709,-0.045674 0.433023,-0.063039 0.217314,-0.017364 0.422703,-0.037568 0.456424,-0.044896 0.0337,-0.00732 0.08326,0.00288 0.110099,0.022755 0.0446,0.032959 0.02596,0.126834 -0.216969,1.092935 -0.146169,0.5812744 -0.273188,1.0819444 -0.282265,1.1125913 -0.01132,0.038144 0.03777,0.011274 0.155662,-0.085213 0.453663,-0.3713795 0.889508,-0.4008249 1.241993,-0.083913 0.382156,0.3435924 0.472052,0.9668744 0.237888,1.6493805 -0.338955,0.987951 -1.280619,1.646262 -1.924224,1.345221 z m 0.587265,-0.14654 c 0.343243,-0.159839 0.627278,-0.594829 0.805349,-1.233364 0.229091,-0.8214997 0.237156,-1.2715413 0.02732,-1.5260857 -0.158538,-0.1923372 -0.42176,-0.1980238 -0.706775,-0.015266 -0.167763,0.1075727 -0.469044,0.4238594 -0.515878,0.5415749 -0.01872,0.047102 -0.09556,0.3234382 -0.170714,0.6140777 -0.247043,0.955382 -0.204805,1.465676 0.135467,1.636633 0.137211,0.06894 0.249417,0.0643 0.425213,-0.01757 z m 3.790943,-0.623455 c -0.349587,-0.08462 -0.705388,-0.331742 -0.887488,-0.616407 -0.165928,-0.259387 -0.224967,-0.483396 -0.212224,-0.8052373 0.0098,-0.2471625 0.02308,-0.3044895 0.115942,-0.4990775 0.184783,-0.3873201 0.461502,-0.633779 0.884016,-0.7873508 l 0.213248,-0.077506 1.262374,-0.010369 c 0.694303,-0.00568 1.38457,-0.00123 1.533928,0.00967 l 0.271559,0.020039 0,0.2468004 0,0.2467963 -1.478548,0 c -0.875757,0 -1.543017,0.012139 -1.636682,0.029791 -0.805559,0.151642 -1.104901,0.9891149 -0.543373,1.5201849 0.09188,0.0869 0.221136,0.171331 0.327265,0.213771 0.175129,0.07004 0.177869,0.07017 1.746028,0.08741 0.863849,0.0095 1.573933,0.01963 1.577969,0.02251 0.0041,0.0029 0.0073,0.104318 0.0073,0.22542 l 0,0.220182 -1.504573,-0.0025 c -1.192599,-0.0021 -1.540277,-0.01111 -1.676781,-0.04413 z"
       id="path3347"
       inkscape:connector-curvature="0" />
  </g>
</svg>
